# xmcd
#
# Track frame offsets: 
#        150
#        10718
#        22822
#        33253
#        45374
#        59550
#        78586
#        88853
#        99332
#        109774
#        124531
#        134753
#        146664
#        157311
#        166493
#        180327
#        195613
#        207269
#
# Disc length: 2935 seconds
#
# Revision: 2
# Processed by: cddbd v1.5.2PL0 Copyright (c) Steve Scherf et al.
# Submitted via: ExactAudioCopy v1.0b1
#
DISCID=ef0b7512
DTITLE=B.B. King - More B. B. King
DYEAR=2004
DGENRE=Blues
TTITLE0=Bad Case Of Love (mono)
TTITLE1=Get Out Of Here (stereo)
TTITLE2=Bad Luck Soul (stereo)
TTITLE3=Shut Your Mouth (mono)
TTITLE4=Baby, Look At You (mono)
TTITLE5=You're Breaking My Heart (mono)
TTITLE6=My Reward (mono)
TTITLE7=Don't Cry Anymore (mono)
TTITLE8=Blues For Me (stereo)
TTITLE9=(Ain't That) Just Like A Woman (stereo)
TTITLE10=Lonely (mono)
TTITLE11=You're Gonna Miss Me (stereo)
TTITLE12=I Can Hear My Name (stereo)
TTITLE13=And Like That (mono)
TTITLE14=Just A Dream (mono)
TTITLE15=Broken Promise (mono)
TTITLE16=Mercy Mercy Baby (mono)
TTITLE17=I Wonder Why (stereo)
EXTD=YEAR: 2004
EXTT0=
EXTT1=
EXTT2=
EXTT3=
EXTT4=
EXTT5=
EXTT6=
EXTT7=
EXTT8=
EXTT9=
EXTT10=
EXTT11=
EXTT12=
EXTT13=
EXTT14=
EXTT15=
EXTT16=
EXTT17=
PLAYORDER=
